<svg width="136" height="40" viewBox="0 0 136 40" fill="none" xmlns="http://www.w3.org/2000/svg">
<path d="M59.7046 30H53.5171V12.5455H59.7557C61.5114 12.5455 63.0228 12.8949 64.2898 13.5938C65.5568 14.2869 66.5313 15.2841 67.2131 16.5852C67.9006 17.8864 68.2443 19.4432 68.2443 21.2557C68.2443 23.0739 67.9006 24.6364 67.2131 25.9432C66.5313 27.25 65.5512 28.2528 64.2728 28.9517C63 29.6506 61.4773 30 59.7046 30ZM57.2074 26.8381H59.5512C60.6421 26.8381 61.5597 26.6449 62.304 26.2585C63.054 25.8665 63.6165 25.2614 63.9915 24.4432C64.3722 23.6193 64.5625 22.5568 64.5625 21.2557C64.5625 19.9659 64.3722 18.9119 63.9915 18.0938C63.6165 17.2756 63.0568 16.6733 62.3125 16.2869C61.5682 15.9006 60.6506 15.7074 59.5597 15.7074H57.2074V26.8381ZM70.978 30V12.5455H82.7394V15.5881H74.6684V19.7472H82.1343V22.7898H74.6684V26.9574H82.7735V30H70.978ZM85.6733 30V12.5455H92.5597C93.8779 12.5455 95.0029 12.7812 95.9347 13.2528C96.8722 13.7187 97.5853 14.3807 98.0739 15.2386C98.5682 16.0909 98.8154 17.0937 98.8154 18.2472C98.8154 19.4062 98.5654 20.4034 98.0654 21.2386C97.5654 22.0682 96.8409 22.7045 95.8921 23.1477C94.9489 23.5909 93.8068 23.8125 92.4659 23.8125H87.8551V20.8466H91.8693C92.5739 20.8466 93.1591 20.75 93.625 20.5568C94.0909 20.3636 94.4375 20.0739 94.6648 19.6875C94.8978 19.3011 95.0142 18.821 95.0142 18.2472C95.0142 17.6676 94.8978 17.179 94.6648 16.7812C94.4375 16.3835 94.0881 16.0824 93.6165 15.8778C93.1506 15.6676 92.5625 15.5625 91.8523 15.5625H89.3637V30H85.6733ZM95.0995 22.0568L99.4375 30H95.3637L91.1193 22.0568H95.0995ZM101.423 30V12.5455H108.412C109.696 12.5455 110.767 12.7358 111.625 13.1165C112.483 13.4972 113.128 14.0256 113.56 14.7017C113.992 15.3722 114.207 16.1449 114.207 17.0199C114.207 17.7017 114.071 18.3011 113.798 18.8182C113.526 19.3295 113.151 19.75 112.673 20.0795C112.202 20.4034 111.662 20.6335 111.054 20.7699V20.9403C111.719 20.9687 112.341 21.1562 112.92 21.5028C113.506 21.8494 113.98 22.3352 114.344 22.9602C114.707 23.5795 114.889 24.3182 114.889 25.1761C114.889 26.1023 114.659 26.929 114.199 27.6562C113.744 28.3778 113.071 28.9489 112.179 29.3693C111.287 29.7898 110.188 30 108.881 30H101.423ZM105.114 26.983H108.122C109.151 26.983 109.901 26.7869 110.372 26.3949C110.844 25.9972 111.08 25.4687 111.08 24.8097C111.08 24.3267 110.963 23.9006 110.73 23.5312C110.497 23.1619 110.165 22.8722 109.733 22.6619C109.307 22.4517 108.798 22.3466 108.207 22.3466H105.114V26.983ZM105.114 19.8494H107.849C108.355 19.8494 108.804 19.7614 109.196 19.5852C109.594 19.4034 109.906 19.1477 110.134 18.8182C110.367 18.4886 110.483 18.0938 110.483 17.6335C110.483 17.0028 110.259 16.4943 109.81 16.108C109.367 15.7216 108.736 15.5284 107.918 15.5284H105.114V19.8494ZM120.299 30H116.344L122.37 12.5455H127.126L133.143 30H129.188L124.816 16.5341H124.68L120.299 30ZM120.052 23.1392H129.393V26.0199H120.052V23.1392Z" fill="black"/>
<path d="M1.87049 11.4552C1.87049 12.2485 2.50445 12.9064 3.26892 12.9064H36.8312C37.5957 12.9064 38.2297 12.2485 38.2297 11.4552C38.2297 10.6618 37.5957 10.0039 36.8312 10.0039H34.9294L34.2208 6.50161C33.5496 3.11536 32.1512 0 26.5947 0H13.5054C7.949 0 6.55057 3.11536 5.87933 6.50161L5.17079 10.0039H3.26892C2.50445 10.0039 1.87049 10.6618 1.87049 11.4552Z" fill="#325BEF"/>
<path d="M1.0657 22.4109C1.34539 19.2181 2.16599 15.8125 8.15127 15.8125H31.9431C37.9284 15.8125 38.7302 19.2181 39.0285 22.4109L40.0727 34.195C40.2032 35.6656 39.737 37.1362 38.7675 38.2391C37.7792 39.3614 36.3808 40 34.8892 40H31.3838C28.3632 40 27.7851 38.2004 27.4122 37.0201L27.0393 35.8591C26.6105 34.524 26.4986 34.195 24.8205 34.195H15.2738C13.5956 34.195 13.5397 34.3885 13.0549 35.8591L12.682 37.0201C12.3091 38.2004 11.7311 40 8.71046 40H5.20525C3.73204 40 2.31497 39.3614 1.32675 38.2391C0.35717 37.1362 -0.108974 35.6656 0.0215454 34.195L1.0657 22.4109ZM25.6409 26.455H31.2346C31.9991 26.455 32.633 25.7971 32.633 25.0038C32.633 24.2104 31.9991 23.5525 31.2346 23.5525H25.6409C24.8764 23.5525 24.2424 24.2104 24.2424 25.0038C24.2424 25.7971 24.8764 26.455 25.6409 26.455ZM8.85962 26.455H14.4533C15.2178 26.455 15.8518 25.7971 15.8518 25.0038C15.8518 24.2104 15.2178 23.5525 14.4533 23.5525H8.85962C8.09515 23.5525 7.46119 24.2104 7.46119 25.0038C7.46119 25.7971 8.09515 26.455 8.85962 26.455Z" fill="#325BEF"/>
</svg>
